<?xml version="1.0" encoding="utf-8"?>
<!-- Generator: Adobe Illustrator 27.5.0, SVG Export Plug-In . SVG Version: 6.00 Build 0)  -->
<svg version="1.1" id="Calque_1" xmlns="http://www.w3.org/2000/svg" xmlns:xlink="http://www.w3.org/1999/xlink" x="0px" y="0px"
	 viewBox="0 0 377 113.4" style="enable-background:new 0 0 377 113.4;" xml:space="preserve">
<style type="text/css">
	.st0{fill:#3A3838;}
	.st1{opacity:0.71;}
	.st2{fill:#0D0904;}
	.st3{fill:#838185;}
</style>
<g>
	<g>
		<path class="st0" d="M76.5,31.3h-5.5V20.9h1v9.4h4.5V31.3z"/>
		<path class="st0" d="M76.8,31.3l4.3-10.6l4.2,10.6h-1.1l-0.9-2.2h-4.6l-0.9,2.2H76.8z M79.2,28.1H83l-1.9-4.8L79.2,28.1z"/>
		<path class="st0" d="M92.4,21.9h-2.7v-1H96v1h-2.7v9.4h-1V21.9z"/>
		<path class="st0" d="M95.2,31.3l4.3-10.6l4.2,10.6h-1.1l-0.9-2.2h-4.6l-0.9,2.2H95.2z M97.5,28.1h3.8l-1.9-4.8L97.5,28.1z"/>
		<path class="st0" d="M108.8,31.3H105V20.9h3.8c0.9,0,1.7,0.5,2,1.4c0.3,0.8,0.1,1.8-0.5,2.4c1.2,0.6,2,1.8,2,3.1
			C112.3,29.7,110.8,31.3,108.8,31.3z M106,24.3h2.9c0.7,0,1.2-0.5,1.2-1.2c0-0.3-0.1-0.6-0.4-0.9s-0.5-0.4-0.9-0.4H106V24.3z
			 M106,30.3h2.9c1.4,0,2.5-1.1,2.5-2.5s-1.1-2.5-2.5-2.5H106V30.3z"/>
		<path class="st0" d="M119.5,31.3H114V20.9h1v9.4h4.5V31.3z"/>
		<path class="st0" d="M127,31.3h-6.3V20.9h6.3v1h-5.3v5h4.6v1h-4.6v2.5h5.3V31.3z"/>
		<path class="st0" d="M140,26.1c0,2.9-2.3,5.2-5.2,5.2h-2.2V20.9h2.2C137.7,20.9,140,23.2,140,26.1z M139.1,26.1
			c0-2.3-1.9-4.2-4.2-4.2h-1.2v8.4h1.2C137.2,30.3,139.1,28.4,139.1,26.1z"/>
		<path class="st0" d="M148,31.3h-6.3V20.9h6.3v1h-5.3v5h4.6v1h-4.6v2.5h5.3V31.3z"/>
	</g>
</g>
<g class="st1">
	<path class="st2" d="M238.3,91.8h-7.6V77.6h1v13.2h6.6L238.3,91.8z"/>
	<path class="st2" d="M249,91.8h-8.6V77.6h8.6v1h-7.6V86h6.7v1h-6.7v3.9h7.6V91.8z"/>
	<path class="st2" d="M268.6,91.8c-6.2,0-11.2-5-11.2-11.2s5-11.2,11.2-11.2c2.5,0,5,0.8,6.9,2.4l-1,1.2c-1.7-1.3-3.8-2-6-2
		c-4.2,0-8,2.7-9.3,6.8c-1.3,4,0.2,8.4,3.6,10.8c3.4,2.4,8.1,2.3,11.4-0.2v-6.9h-7.8v-1.6h9.4V89l-0.3,0.2
		C273.7,90.9,271.2,91.8,268.6,91.8L268.6,91.8z"/>
	<path class="st2" d="M279.3,91.8l9.2-22.8l9.1,22.8H296l-2-4.9h-11l-2,4.9H279.3z M283.6,85.4h9.8l-4.9-12.1L283.6,85.4z"/>
	<path class="st2" d="M312.1,69.3h1.6v15.4c0,2.6-1.3,5-3.5,6.3c-2.2,1.3-5,1.3-7.2,0c-2.2-1.3-3.6-3.7-3.5-6.3V69.3h1.6v15.4
		c0,2,1,3.9,2.7,4.9c1.7,1,3.9,1,5.6,0c1.7-1,2.8-2.9,2.7-4.9L312.1,69.3z"/>
	<path class="st2" d="M329,91.8h-12V69.3h1.6v20.9h10.4L329,91.8z"/>
	<path class="st2" d="M329,80.6c0-6.2,5-11.2,11.2-11.2s11.2,5,11.2,11.2s-5,11.2-11.2,11.2S329,86.8,329,80.6z M330.5,80.6
		c0,5.4,4.3,9.7,9.7,9.7s9.7-4.3,9.7-9.7c0-5.4-4.3-9.7-9.7-9.7S330.5,75.2,330.5,80.6z"/>
	<path class="st2" d="M354.8,91.8V69.3h1.6v22.5H354.8z"/>
	<path class="st2" d="M364.9,90.2c2.2,0,4.1-1.5,4.7-3.6c0.6-2.1-0.4-4.4-2.3-5.5l-5.2-3c-1.9-1.1-2.7-3.3-2.2-5.4
		c0.6-2.1,2.4-3.5,4.6-3.5h0.5c1.7,0,3.2,0.9,4.1,2.3l-1.4,0.8c-0.6-1-1.6-1.6-2.7-1.6h-0.5c-1.5,0-2.7,1-3.1,2.3
		c-0.4,1.4,0.2,2.9,1.5,3.6l5.2,3c2.5,1.5,3.7,4.4,3,7.2c-0.8,2.8-3.3,4.8-6.2,4.8h-0.1c-2,0-3.9-1-5.1-2.6l1.3-1
		c0.9,1.2,2.3,2,3.9,2H364.9z"/>
</g>
<g class="st1">
	<path class="st3" d="M16,37.9c0.2,0.4,0.2,0.6-0.1,0.8c-0.5,0.2-1.1,0.3-1.7,0.1c-0.6-0.1-1-0.5-1.4-0.9c0.2,0.2,0.3,0.3,0.4,0.4
		c-0.7-0.4-1-1-0.9-1.7c0-0.7,0.2-1.3,0.5-1.9c0.7-1.4,1.5-2.6,2.7-3.6c1.1-1,2.2-2.1,3.2-3.1c1.7-1.7,3.6-3.2,5.5-4.7
		c1.9-1.4,3.9-2.8,5.9-4c4.4-2.9,9.1-5.2,13.9-7.1c2.1-0.8,4.2-1.5,6.3-2c2.1-0.6,4.3-0.9,6.5-1.1c1-0.1,2-0.1,3.1,0
		c1,0.1,1.9,0.5,2.8,1.1c0.8,0.6,1.3,1.3,1.5,2.2c0.2,0.9,0.3,1.8,0.2,2.7c-0.2,1-0.5,1.9-0.9,2.8c-0.4,0.9-0.8,1.8-1.3,2.6
		c-0.5,0.8-1,1.6-1.4,2.3c-0.5,0.7-1,1.5-1.4,2.2c-0.7,1.1-1.3,2.2-2,3.3c-0.7,1.1-1.4,2.2-2.1,3.3c-0.8,1.2-1.6,2.4-2.3,3.5
		c-0.8,1.1-1.6,2.3-2.4,3.5c-1.6,2.3-3.3,4.6-4.9,6.9c-1.7,2.2-3.4,4.5-5.1,6.8c-1.7,2.3-3.5,4.5-5.3,6.7c-1.8,2.2-3.6,4.3-5.5,6.5
		c-1.3,1.5-2.5,3-3.8,4.4c-1.3,1.4-2.6,2.8-3.9,4.2c-0.8,0.9-1.7,1.8-2.6,2.6c-0.9,0.8-1.8,1.6-2.7,2.4c-0.5,0.5-1.1,0.9-1.6,1.3
		c-0.5,0.4-1.1,0.8-1.8,1.2c-0.5,0.3-1,0.6-1.5,0.9c-0.5,0.3-1.1,0.5-1.7,0.6c-0.7,0.1-1.3,0.1-2,0.1c-0.7-0.1-1.3-0.3-1.9-0.7
		c-0.5-0.4-0.8-0.8-1.1-1.4c-0.2-0.6-0.4-1.2-0.5-1.8c-0.2-1.7,0-3.4,0.4-5c0.5-1.7,1-3.3,1.7-4.8c1.7-4,3.8-7.6,6.4-11
		c1.2-1.6,2.5-3,3.8-4.4c1.3-1.3,2.8-2.6,4.4-3.6c0.3-0.2,0.6-0.3,1-0.2c0.4,0.1,0.7,0.3,0.9,0.5c0.2,0.2,0.4,0.4,0.5,0.7
		c0.1,0.3,0,0.5-0.3,0.7c-0.4,0.2-0.7,0.4-0.9,0.6c-0.3,0.2-0.6,0.4-0.9,0.7L19.6,55c-1.3,1.3-2.6,2.7-3.7,4.2
		c-1.2,1.6-2.3,3.2-3.3,4.8c-1,1.6-1.9,3.3-2.7,5.1c-0.4,0.8-0.8,1.7-1.1,2.6c-0.3,0.9-0.6,1.8-0.9,2.7l-0.5,2.4v0.4v0.1
		c0,0.1,0,0.2,0,0.3c0,0.1,0,0.1,0,0.3v1c0.1,0.1,0.1,0.3,0.1,0.5c0,0.2,0,0.4,0.1,0.5c0,0.2,0,0.3,0.1,0.4c-0.1-0.2-0.1-0.2,0-0.1
		c0,0.1,0,0.2,0,0.3c0.1,0.1,0.1,0.1,0.1,0.2c0,0.1,0,0.1,0.1,0.2c0.1,0.1,0.1,0.1,0,0c-0.1-0.1-0.1-0.1,0,0C7.9,80.9,8,81,8,81
		c0.1,0.1,0.1,0,0-0.1c-0.1-0.1-0.2-0.1,0-0.1c0,0.1,0,0.1,0.1,0.1c0.1,0.1,0.1,0.1,0,0c-0.1-0.1-0.1-0.1,0,0c0.1,0.1,0.1,0-0.1,0
		c-0.2-0.1-0.3-0.1-0.1,0h0.2c0.1,0.1,0.1,0.1-0.1,0c-0.2,0-0.2,0,0,0h0.1H7.7h0.4c0.2-0.1,0.2-0.1,0,0c-0.2,0.1-0.2,0.1,0,0
		c0.1-0.1,0.2-0.1,0.4-0.1s0.2,0,0.4-0.1c0.1-0.1,0.1-0.1,0.2-0.1c0.1,0,0.1,0,0.2-0.1c0.1-0.1,0.1,0,0,0c-0.1,0.1-0.1,0.1,0,0
		c0-0.1,0.1-0.1,0.2-0.1c0.1-0.1,0.2-0.2,0.4-0.2c0.1,0,0.2-0.1,0.4-0.2c0.3-0.1,0.6-0.3,0.8-0.5c0.2-0.2,0.5-0.4,0.8-0.5
		c0.3-0.2,0.6-0.4,0.8-0.5c0.2-0.2,0.5-0.4,0.8-0.6c0.1-0.1,0.2-0.1,0.2-0.2c0-0.1,0.1-0.1,0.2-0.2l0.2-0.2
		c-0.1,0.1-0.1,0.1-0.1,0.1c0.1-0.1,0.1-0.1,0.2-0.1c0.1-0.1,0.2-0.2,0.4-0.4c0.1-0.1,0.2-0.2,0.4-0.4c0.8-0.7,1.7-1.5,2.5-2.2
		c0.8-0.8,1.6-1.6,2.4-2.4c1.5-1.6,3-3.3,4.4-4.9c1.4-1.7,2.9-3.3,4.3-5c1.9-2.2,3.7-4.3,5.4-6.5c1.8-2.2,3.5-4.4,5.3-6.7
		c1.7-2.3,3.4-4.6,5.1-6.8c1.6-2.3,3.3-4.6,4.9-6.8c1.4-2.1,2.8-4.2,4.2-6.4s2.7-4.3,4.1-6.4c1.1-1.6,2.1-3.2,2.9-4.8
		c0.4-0.9,0.8-1.8,1.1-2.7c0.1-0.5,0.2-0.9,0.3-1.2c0.1-0.3,0-0.7-0.1-1.1v-0.4c0-0.1,0-0.1,0-0.2c0-0.1,0,0,0,0.1
		c-0.1-0.2-0.2-0.4-0.3-0.4c0-0.1,0-0.1,0-0.1c0,0,0-0.1,0-0.1c-0.1-0.1-0.2-0.2-0.2-0.3c0.1,0.1,0.1,0.2,0.1,0.1
		c-0.1,0-0.1-0.1-0.1-0.1c-0.2-0.1-0.2-0.1-0.1,0c0.1,0.1,0.1,0.1,0,0c-0.1,0-0.1,0-0.1,0c0,0-0.1,0-0.1,0c-0.1-0.1-0.1-0.1,0,0
		c0.1,0.1,0.2,0.1,0,0c-0.1,0-0.1,0-0.1,0c0,0-0.1,0-0.1,0c-0.1,0-0.1,0-0.1,0c0,0-0.1,0-0.1,0c0.2,0.1,0.3,0.1,0.2,0
		c-0.1,0-0.2,0-0.2,0c-0.2,0-0.5,0-0.6-0.1h-0.4h-0.6C58.2,10.9,58,11,57.8,11c-0.2,0-0.4,0-0.6,0c-0.2,0.1-0.5,0.1-0.6,0.1
		c-0.2,0-0.4,0-0.6,0c-0.1,0-0.2,0-0.3,0c-0.1,0-0.2,0-0.3,0h-0.3c-0.1,0.1-0.1,0.1,0,0c0.1,0,0.1,0-0.1,0c-4.9,1-9.7,2.6-14.3,4.8
		c-4.6,2.2-8.9,4.8-13,7.7c-1.6,1.1-3,2.3-4.4,3.5c-1.4,1.2-2.8,2.5-4.1,3.8c-0.7,0.6-1.3,1.2-1.8,1.8s-1,1.2-1.5,1.9
		c-0.2,0.3-0.4,0.6-0.5,0.8c-0.1,0.2-0.2,0.5-0.4,0.9c-0.1,0.1-0.1,0.3-0.1,0.4v0.3v0.2c0.1,0.1,0.1,0.1,0,0c-0.1-0.1-0.1-0.1,0,0
		c0.1,0.2,0.1,0.5,0.1,0.6v-0.4c0.1,0.2,0,0.2,0,0.1c-0.1-0.1-0.2-0.1-0.3-0.1h0.3C15.3,37.4,15.6,37.5,16,37.9z"/>
	<path class="st3" d="M52.4,52.6c-0.5,0.2-1,0.4-1.7,0.4c-0.6,0.1-1.2,0-1.8-0.3L48.8,53c-0.2,0.5-0.4,0.9-0.4,1.2
		c-0.1,0.1-0.1,0.1-0.1,0.3c0,0.1,0,0.1,0,0.1c0,0,0,0.1,0,0.1L48.1,55c0,0.3,0,0.6,0,0.9c0,0.3,0.2,0.6,0.5,0.9
		c0.2,0.1,0.4,0.2,0.5,0.2H50c1.1-0.1,2-0.3,2.9-0.5c0.8-0.2,1.7-0.6,2.7-1c2.2-1,4.4-2.2,6.5-3.5c2.1-1.3,4.4-2.8,6.8-4.5
		c0.5-0.4,1-0.7,1.6-1.1c0.6-0.4,1.1-0.7,1.6-1.1c0.2-0.1,0.5-0.3,0.8-0.4c0.3-0.2,0.6-0.3,0.9-0.4c0.1-0.1,0.3-0.1,0.6-0.1h0.1
		c-0.1,0-0.1,0,0,0c0,0,0.1,0,0.1,0h0.2l0.4,0.1l0.2,0.2l0.2,0.2l0.1,0.1c0.1,0.2,0.1,0.4,0,0.6l-0.2,0.3l-0.3,0.3l-1.2,0.9
		l-0.4,0.3l-2.9,2c-1.3,0.9-2.7,1.8-4.2,2.8c-1.5,1-3.1,1.9-4.9,2.8c-1.2,0.7-2.5,1.3-3.9,1.9c-1.4,0.6-2.7,1.1-4,1.4
		c-1.4,0.4-2.9,0.5-4.3,0.4c-0.8-0.1-1.6-0.4-2.4-0.9c-0.7-0.5-1.3-1.1-1.6-2c-0.2-0.8-0.1-1.7,0.2-2.6c0.3-0.9,0.7-1.6,1.1-2.3
		c1.1-1.6,2.3-3.1,3.8-4.5c0.6-0.6,1.3-1.2,2-1.8c0.7-0.6,1.5-1.1,2.4-1.6c0.7-0.4,1.6-0.8,2.7-1c1-0.3,2-0.1,2.8,0.5
		c0.7,0.6,1,1.3,0.8,2.1c-0.2,0.8-0.6,1.5-1,2.2c-0.8,1.1-2,2.2-3.4,3.3c-0.7,0.5-1.4,0.9-2.1,1.3C54,51.9,53.2,52.3,52.4,52.6z
		 M49.9,51.3c-0.1,0.1,0.1,0.1,0.8-0.1c0.6-0.2,1.4-0.6,2.3-1.1c0.9-0.5,1.9-1.2,2.9-2c1-0.8,1.9-1.8,2.6-3c0.1-0.1,0.1-0.2,0.2-0.4
		c0.1-0.2,0.1-0.5,0.1-0.9C58,44,57.2,44.4,56.2,45c-0.3,0.2-0.5,0.4-0.7,0.5c-0.2,0.2-0.4,0.4-0.6,0.5c-0.1,0.1-0.1,0.1-0.1,0.1
		c0,0-0.1,0-0.1,0.1l-0.2,0.2c-0.7,0.7-1.4,1.3-2.1,2s-1.3,1.4-1.9,2.2L49.9,51.3z"/>
	<path class="st3" d="M73.9,44.1c0.2-0.1,0.5-0.1,0.8-0.1c0.3,0.1,0.6,0.1,0.9,0.3c0,0.1,0,0.1,0.1,0.1l0.2,0.1
		c0.2,0.1,0.2,0.3,0.1,0.7c-0.1,0.4-0.3,0.8-0.5,1.3c-0.2,0.5-0.5,1-0.8,1.5c-0.3,0.5-0.5,1-0.7,1.3c1.2-0.8,2.4-1.7,3.7-2.5
		c1.3-0.8,2.7-1.6,4.1-2.4l0.5-0.3l0.8-0.4c0.7-0.3,1.3-0.5,1.9-0.7c0.6-0.2,1.3-0.3,1.9-0.4h0.1c0.2,0,0.4,0,0.6-0.1
		c0.3,0,0.6,0,0.8,0c0.2,0,0.4,0,0.5,0.1c0.4,0.1,0.8,0.3,1.2,0.6c0.4,0.3,0.5,0.7,0.4,1.3c-0.2,0.4-0.5,0.5-1.1,0.5
		c-0.5-0.1-1-0.1-1.3-0.3c-0.1,0-0.3,0-0.4,0c-0.2,0-0.5,0.1-1,0.2c-0.1,0-0.2,0-0.3,0.1l-0.8,0.3c-1,0.5-1.9,0.9-2.7,1.3l-0.9,0.4
		l-1.7,1l-1,0.6l-2.2,1.3l-1.6,1.3l-2.2,2.2l-2.1,1.9l-2.1,2.3c-0.2,0.4-0.4,0.7-0.6,0.9c-0.1,0.2-0.4,0.6-0.7,1
		c-0.1,0.2-0.2,0.4-0.3,0.4c-0.1,0.2-0.4,0.2-0.8,0.2c-0.4-0.1-0.7-0.1-0.9-0.2c-0.2-0.1-0.5-0.3-0.7-0.6c-0.2-0.3-0.3-0.5-0.1-0.7
		l1.1-1.6c0.4-0.7,0.8-1.2,1-1.6c0.3-0.4,0.5-0.7,0.7-1c0.2-0.3,0.3-0.5,0.5-0.8c0.2-0.3,0.3-0.6,0.5-0.9l0.5-1.1l1.9-3.4
		c0.3-0.8,0.7-1.6,1.1-2.3C73,45,73.4,44.4,73.9,44.1z"/>
	<path class="st3" d="M111.7,43.7c0.2-0.1,0.4-0.2,0.8-0.1c0.3,0,0.6,0.1,0.9,0.3c0.3,0.2,0.4,0.4,0.5,0.6c0.1,0.2,0,0.4-0.3,0.7
		c-0.8,0.7-1.7,1.2-2.7,1.7c-0.9,0.5-1.9,0.9-2.9,1.3c-1,0.4-2,0.8-3.1,1.1c-1,0.3-2.1,0.6-3.1,0.9c-0.4,0.1-0.9,0.1-1.4,0.2
		c-0.5,0.1-1.1,0.2-1.6,0.2c-0.2,0.3-0.5,0.6-0.7,0.9c-0.2,0.3-0.5,0.6-0.8,0.9c-0.9,1.2-1.8,2.3-2.8,3.3c-0.6,0.7-1.2,1.3-1.9,1.8
		c-0.7,0.6-1.4,1-2.2,1.3c-0.8,0.3-1.6,0.5-2.4,0.6c-0.8,0.1-1.6-0.1-2.4-0.5c-0.8-0.5-1.3-1.1-1.4-2C84,56.7,83.9,56.4,84,56
		c0-0.4,0.1-0.8,0.2-1.1c0.3-1.2,0.7-2.3,1.3-3.4c0.6-1,1.2-2.1,1.8-3c0.8-1,1.6-1.9,2.5-2.8c0.9-0.8,1.9-1.6,3-2.2
		c0.3-0.1,0.6-0.1,0.9-0.1c0.3,0.1,0.6,0.2,0.9,0.4c0.4,0.3,0.5,0.6,0.4,1c-0.1,0.4-0.4,0.5-0.8,0.5c-1.4,1.2-2.8,2.6-4.1,4.3
		c-0.7,0.8-1.2,1.7-1.8,2.7c-0.5,0.9-0.9,1.9-1.2,2.9c-0.1,0.2-0.1,0.4-0.2,0.6c-0.1,0.2-0.1,0.4-0.1,0.7v0.1v0.3v0.4
		c0,0.2,0.1,0.4,0.3,0.4c0.2,0,0.3,0,0.4,0c0.1,0,0.2,0,0.2,0c0,0,0.1,0,0.2,0c0.1,0,0.2,0,0.3-0.1c0.1-0.1,0.1-0.1,0,0l0.4-0.3
		c0.7-0.4,1.3-0.8,1.9-1.3c0.5-0.5,1.1-1,1.7-1.6c0.5-0.6,1-1.2,1.5-1.8c0.5-0.6,1-1.2,1.5-1.8c0.1-0.2,0.2-0.3,0.4-0.5
		c0.1-0.1,0.2-0.3,0.4-0.4l-0.3-0.3c-0.5-0.5-0.7-1.3-0.7-2.2c0-0.3,0-0.6,0-0.9c0-0.3,0.1-0.6,0.2-0.9c0.3-0.9,0.8-1.6,1.6-2.1
		c0.6-0.3,1.2-0.4,1.8-0.2c0.6,0.2,1.1,0.5,1.5,1c0.5,0.7,0.7,1.3,0.6,2c-0.1,0.7-0.3,1.4-0.6,2v0.1h0.2c1.1-0.2,2.1-0.5,3.2-0.9
		c1-0.3,2.1-0.7,3.1-1.1l2.7-1.3c0.4-0.2,0.8-0.5,1.2-0.6C111,44.2,111.4,44,111.7,43.7z"/>
	<path class="st3" d="M147,44.5c0.5,0.5,0.6,1,0.3,1.4c-0.1,0.1-0.1,0.1-0.2,0.2c-0.1,0.1-0.2,0.2-0.4,0.4l-0.7,0.5
		c-0.4,0.3-0.7,0.6-1.1,0.8c-0.4,0.2-0.7,0.5-1,0.8l-5.6,3.8c-1.4,0.8-2.8,1.7-4.2,2.6c-1.4,0.9-2.9,1.6-4.5,2.3
		c-0.5,0.3-1.1,0.6-1.8,0.8c-0.7,0.2-1.3,0.4-2,0.5c-0.7,0.1-1.3,0.2-1.9,0.1c-0.6-0.1-1.1-0.4-1.6-1c-0.4-0.4-0.5-0.9-0.5-1.5
		c0-0.6,0.1-1.1,0.3-1.6c0.2-0.7,0.4-1.3,0.8-2c0.3-0.7,0.6-1.3,0.9-2c0.4-0.7,0.7-1.3,1.1-2c0.4-0.7,0.7-1.4,1-2.1
		c0.1-0.4,0.2-0.6,0.2-0.7c0,0,0,0,0,0c-0.1,0.1-0.2,0.1-0.1,0c0.1-0.1,0-0.1-0.1,0l-0.2,0.2c-0.1,0.1-0.2,0.1-0.2,0.2
		c0,0.1-0.1,0.1-0.1,0.2l-0.8,0.7L123,49c-1.1,1.3-2.1,2.5-3.2,3.8c-1,1.3-2.2,2.4-3.6,3.5c-0.4,0.3-0.8,0.3-1.4,0.1
		c-0.6-0.2-0.9-0.6-1-1.1c-0.1-1,0-1.9,0.4-2.8c0.4-0.9,0.8-1.8,1.3-2.6c0.2-0.4,0.4-0.7,0.6-1.1c0.2-0.4,0.4-0.8,0.5-1.1
		c-0.8,0.7-1.6,1.3-2.4,2.1c-0.8,0.7-1.5,1.5-2.2,2.2c-1.1,1.2-2.2,2.5-3.2,3.8c-1,1.3-1.9,2.7-2.8,4.1c-0.1,0.2-0.3,0.3-0.7,0.3
		c-0.3,0-0.7,0-1-0.1c-0.3-0.1-0.6-0.3-0.8-0.5c-0.2-0.2-0.3-0.5-0.1-0.8c1.2-3,2.7-5.9,4.4-8.6c1.7-2.8,3.4-5.5,5.2-8.2
		c0.1-0.2,0.3-0.3,0.6-0.3c0.3,0,0.5,0,0.6,0.1c0.8,0.2,1.2,0.7,1.2,1.6c0,0.4-0.2,0.5-0.5,0.5c-0.2,0.1-0.4,0.4-0.7,0.8
		c-0.3,0.4-0.6,0.9-0.9,1.3c-0.3,0.5-0.6,0.9-0.9,1.3c-0.3,0.4-0.4,0.7-0.5,0.9c0.5-0.5,1.1-1,1.8-1.5c1.3-1.1,2.5-1.9,3.8-2.6
		c0.4-0.2,0.8-0.2,1.4,0c0.6,0.2,0.9,0.5,0.9,1c0.1,1,0,1.9-0.3,2.7c-0.3,0.8-0.7,1.7-1.1,2.5c0.4-0.5,0.9-1.1,1.3-1.6
		c0.4-0.5,0.9-1,1.4-1.5c0.4-0.5,0.9-1.1,1.4-1.7c0.5-0.6,1.1-1.1,1.7-1.5c0.6-0.4,1.2-0.8,1.9-1.1c0.7-0.3,1.4-0.4,2.2-0.3
		c0.3,0.1,0.6,0.2,0.9,0.4c0.3,0.2,0.5,0.4,0.6,0.7c0,0.7-0.2,1.4-0.4,2.1c-0.3,0.7-0.6,1.4-0.9,2c-0.5,0.8-0.9,1.7-1.3,2.6
		c-0.4,0.9-0.8,1.7-1.3,2.6c-0.1,0.3-0.3,0.6-0.4,0.9c-0.2,0.3-0.3,0.6-0.4,0.9l-0.3,0.9c0,0.1,0,0.1,0,0.2c0,0.1,0,0.1,0,0.2
		c0,0.1,0,0.1,0,0.2c0,0.1,0,0.1,0,0v0.3c0.4,0,0.8-0.1,1.2-0.2c0.4-0.1,0.8-0.3,1.2-0.5c0.7-0.3,1.3-0.6,1.9-0.9
		c0.6-0.3,1.3-0.7,1.9-1c1.5-0.8,3-1.7,4.4-2.6c1.4-0.9,2.8-1.9,4.2-2.9L143,46l2.2-1.5C145.9,44,146.4,44,147,44.5z"/>
	<path class="st3" d="M144.6,52.6c-0.5,0.2-1,0.4-1.7,0.4c-0.6,0.1-1.2,0-1.8-0.3L141,53c-0.2,0.5-0.4,0.9-0.4,1.2
		c-0.1,0.1-0.1,0.1-0.1,0.3c0,0.1,0,0.1,0,0.1c0,0,0,0.1,0,0.1l-0.1,0.4c0,0.3,0,0.6,0,0.9c0,0.3,0.2,0.6,0.5,0.9
		c0.2,0.1,0.4,0.2,0.5,0.2h0.8c1.1-0.1,2-0.3,2.9-0.5c0.8-0.2,1.7-0.6,2.7-1c2.2-1,4.4-2.2,6.5-3.5c2.1-1.3,4.4-2.8,6.8-4.5
		c0.5-0.4,1-0.7,1.6-1.1c0.6-0.4,1.1-0.7,1.6-1.1c0.2-0.1,0.5-0.3,0.8-0.4c0.3-0.2,0.6-0.3,0.9-0.4c0.1-0.1,0.3-0.1,0.6-0.1h0.1
		c-0.1,0-0.1,0,0,0c0,0,0.1,0,0.1,0h0.2l0.4,0.1l0.2,0.2l0.2,0.2l0.1,0.1c0.1,0.2,0.1,0.4,0,0.6l-0.2,0.3l-0.3,0.3l-1.2,0.9
		l-0.4,0.3l-2.9,2c-1.3,0.9-2.7,1.8-4.2,2.8c-1.5,1-3.1,1.9-4.9,2.8c-1.2,0.7-2.5,1.3-3.9,1.9c-1.4,0.6-2.7,1.1-4,1.4
		c-1.4,0.4-2.9,0.5-4.3,0.4c-0.8-0.1-1.6-0.4-2.4-0.9c-0.7-0.5-1.3-1.1-1.6-2c-0.2-0.8-0.1-1.7,0.2-2.6c0.3-0.9,0.7-1.6,1.1-2.3
		c1.1-1.6,2.3-3.1,3.8-4.5c0.6-0.6,1.3-1.2,2-1.8c0.7-0.6,1.5-1.1,2.4-1.6c0.7-0.4,1.6-0.8,2.7-1c1-0.3,2-0.1,2.8,0.5
		c0.7,0.6,1,1.3,0.8,2.1c-0.2,0.8-0.6,1.5-1,2.2c-0.8,1.1-2,2.2-3.4,3.3c-0.7,0.5-1.4,0.9-2.1,1.3C146.2,51.9,145.4,52.3,144.6,52.6
		z M142.1,51.3c-0.1,0.1,0.1,0.1,0.8-0.1c0.6-0.2,1.4-0.6,2.3-1.1c0.9-0.5,1.9-1.2,2.9-2c1-0.8,1.9-1.8,2.6-3
		c0.1-0.1,0.1-0.2,0.2-0.4c0.1-0.2,0.1-0.5,0.1-0.9c-0.7,0.2-1.6,0.6-2.5,1.3c-0.3,0.2-0.5,0.4-0.7,0.5c-0.2,0.2-0.4,0.4-0.6,0.5
		c-0.1,0.1-0.1,0.1-0.1,0.1c0,0-0.1,0-0.1,0.1l-0.2,0.2c-0.7,0.7-1.4,1.3-2.1,2s-1.3,1.4-1.9,2.2L142.1,51.3z"/>
	<path class="st3" d="M266.3,13.2c0.5,2.1,0.3,4.2-0.6,6.2c-0.9,2-2,3.8-3.2,5.4c-1.2,1.6-2.5,3-3.9,4.3c-1.4,1.3-2.9,2.5-4.5,3.7
		c-1.6,1.1-3.2,2.2-4.8,3.1c-1.7,0.9-3.3,1.8-5,2.7c-2,1-4.1,2-6.1,2.9c-2,0.9-4.1,1.8-6.2,2.7c-2.1,0.8-4.2,1.7-6.3,2.4
		c-2.1,0.8-4.2,1.5-6.3,2.2c-1,0.3-1.9,0.6-2.9,0.9c-1,0.3-1.9,0.6-3,0.9c-0.4,0.1-0.9,0.3-1.3,0.4c-0.4,0.1-0.9,0.3-1.4,0.4
		l-1.3,0.3l-0.6,0.2c-0.2,0.3-0.5,0.6-0.7,0.9c-0.2,0.3-0.4,0.7-0.7,1c-3.2,4.7-6.2,9.4-9.2,14.3c-1.6,2.5-3,4.9-4.2,7.2l-1.9,3.8
		c-0.3,0.7-0.5,1.4-0.7,2c-0.1,0.3-0.2,0.6-0.3,0.9c-0.1,0.3-0.1,0.6-0.2,0.9c0,0.4-0.1,0.6-0.4,0.8c-0.3,0.1-0.6,0.2-0.9,0.1
		c-0.4-0.1-0.7-0.2-1-0.3c-0.3-0.2-0.5-0.4-0.6-0.7c0-0.1,0-0.1,0-0.1c0,0,0-0.1,0-0.1v-0.2c-0.1-0.9,0-1.8,0.5-2.7
		c0.4-0.9,0.9-1.7,1.2-2.5l3.1-7c0.6-1.2,1.2-2.4,1.8-3.7c0.6-1.3,1.1-2.5,1.7-3.8c1-2.3,1.9-4.7,2.7-7.2c0.8-2.5,1.2-5,1.3-7.6
		c0.2-2.2,0.1-4.4-0.3-6.6c-0.2-1-0.4-2-0.6-2.9c-0.2-0.9-0.6-1.8-1.1-2.8c-0.2-0.4-0.4-0.8-0.7-1.3l-0.3-0.6c0.1,0.1,0.1,0.1,0,0.1
		c-0.1-0.1-0.1-0.1-0.1-0.2l-0.2-0.2c-0.4-0.5-0.7-0.8-0.9-1.1l-0.3-0.4c-0.2-0.2-0.3-0.3-0.4-0.3l-0.5-0.4l-0.1-0.1h-0.1l-0.5-0.3
		c0,0.1-0.1,0-0.3-0.2l-0.5-0.2h-0.3c-0.1-0.1-0.3-0.1-0.5-0.1h-0.2c-0.3,0-0.6,0-0.9-0.1c-0.3-0.1-0.6-0.3-0.9-0.6
		c-0.4-0.5-0.3-0.9,0.1-1.3c3.5-2.7,7.1-5.2,10.8-7.5c3.7-2.3,7.6-4.3,11.6-6.2c4.7-2.2,9.5-4.1,14.4-5.7c4.9-1.6,10-2.6,15.1-3.1
		c2.3-0.3,4.6-0.5,6.9-0.5c2.3-0.1,4.6,0.1,6.9,0.6c1,0.2,2,0.5,3,0.8c1,0.4,2,0.8,2.9,1.4c0.9,0.6,1.7,1.2,2.3,2
		C265.5,11.2,266,12.1,266.3,13.2z M193.3,30.7c0.1,0,0.2,0,0.3,0C193.6,30.7,193.5,30.7,193.3,30.7z M194.2,30.9
		c-0.2-0.1-0.3-0.2-0.2-0.1C194,30.8,194.1,30.8,194.2,30.9L194.2,30.9z M195,31.3c-0.1,0-0.1,0-0.2-0.1
		C194.8,31.1,194.8,31.2,195,31.3L195,31.3z M262.8,17.8c0.4-0.9,0.5-1.8,0.5-2.8c0-0.2,0-0.5,0-0.7c0-0.2,0-0.5-0.1-0.7
		c0-0.2,0-0.4-0.1-0.6c-0.1-0.2-0.1-0.4-0.2-0.5l-0.3-0.6l-0.2-0.3c-0.1-0.1-0.1-0.1,0,0c0.1,0.1,0.1,0.1,0,0
		c-0.1-0.1-0.2-0.2-0.2-0.3c0-0.1-0.1-0.1-0.2-0.2c0-0.1-0.1-0.1-0.2-0.3c-0.2-0.2-0.6-0.5-1.1-0.9c-0.2-0.1-0.2-0.1,0,0
		c0.1,0.1,0.1,0.1,0,0c-0.1,0-0.1-0.1-0.3-0.2l-0.6-0.3c-0.1-0.1-0.2-0.2-0.4-0.2c-0.1-0.1-0.1-0.1-0.2-0.1c-0.1,0,0,0,0.1,0.1
		l-0.6-0.3c-0.3-0.1-0.6-0.2-0.8-0.3c-0.2-0.1-0.4-0.1-0.7-0.2c-0.1,0-0.2,0-0.3,0c-0.1,0-0.1,0-0.2,0c-0.1,0-0.1,0-0.1,0
		c0,0-0.1,0-0.1,0L256,8.2C255.4,8,254.9,8,254.5,8c-0.3-0.1-0.6-0.1-0.8-0.1c-0.2,0-0.5,0-0.8,0h-0.7H252c-0.1-0.1-0.3-0.1-0.4-0.1
		c-0.6,0-1.2,0-1.8,0c-0.6,0-1.2,0-1.8,0c-5,0.3-9.9,1.1-14.8,2.3c-4.9,1.3-9.6,2.9-14.2,4.9c-4.3,1.8-8.5,3.9-12.5,6.2
		c-4,2.3-7.9,4.9-11.7,7.7c1.2,0.5,2.2,1.1,3.1,1.9c1.5,1.4,2.7,3,3.5,4.9c0.8,1.9,1.4,3.8,1.7,5.7c0.4,2.3,0.6,4.7,0.4,7.1
		c-0.2,2.4-0.6,4.7-1.2,7c-0.1,0.3-0.2,0.6-0.2,0.8c0,0.2-0.1,0.5-0.2,0.8c0.9-1.4,1.8-2.8,2.8-4.2c1-1.4,1.9-2.8,2.9-4.2
		c2.8-4,5.7-8,8.5-11.9c2.8-3.9,5.7-7.9,8.6-11.9c0.2-0.2,0.5-0.4,0.9-0.4c0.4,0,0.7,0.1,1.1,0.2c0.3,0.1,0.6,0.4,0.8,0.6
		c0.2,0.3,0.2,0.6,0,0.9l-1,1.4c-2.5,3.6-5.1,7.2-7.7,10.7c-2.6,3.5-5.2,7.1-7.7,10.7l3.8-1.1c1.5-0.5,3-1,4.5-1.5
		c1.5-0.5,3-1.1,4.5-1.6c4-1.5,8-3.1,11.9-4.8c3.9-1.7,7.8-3.7,11.6-5.9c0.8-0.5,1.5-1,2.3-1.4c0.7-0.5,1.5-1,2.2-1.5
		c0.4-0.3,0.7-0.6,1.2-0.9c0.4-0.3,1-0.7,1.6-1.3l1-0.9c0.8-0.7,1.5-1.5,2.2-2.3c0.7-0.8,1.4-1.6,2.1-2.5
		C261.2,21.4,262.2,19.6,262.8,17.8z M256.8,8.3l-0.2-0.1C256.6,8.3,256.6,8.3,256.8,8.3z"/>
	<path class="st3" d="M278,45.1c0.2,0.1,0.5,0.3,0.7,0.6c0.2,0.3,0.2,0.5,0,0.7c-1.5,1.3-3,2.6-4.4,3.8c-1.4,1.2-3,2.3-4.6,3.4
		c-0.8,0.5-1.4,0.9-1.8,1.2c-0.4,0.3-1,0.6-1.6,0.9c-1.8,1-3.1,1.7-4,2.1c-0.8,0.4-1.6,0.6-2.2,0.7c-1.1,0.1-2.2,0.1-3.4-0.1
		c-1.2-0.2-2.1-0.8-2.7-1.8c-0.4-0.5-0.5-1.1-0.5-1.8c0-0.7,0.1-1.3,0.3-2c-0.4,0.5-0.9,0.9-1.3,1.3c-0.4,0.4-0.9,0.9-1.4,1.3
		c-0.5,0.4-0.9,0.9-1.3,1.3c-0.4,0.5-0.8,0.9-1.3,1.2c-0.7,0.6-1.5,1.1-2.5,1.4c-0.5,0.2-1.1,0.3-1.7,0.3c-0.6,0-1.2-0.3-1.8-0.7
		c-0.4-0.3-0.7-0.7-0.9-1.2c-0.2-0.5-0.3-1-0.3-1.5c0.1-1.1,0.4-2.2,0.9-3.1c0.5-0.9,1.1-1.8,1.8-2.7c0.7-0.9,1.5-1.8,2.3-2.6
		c0.8-0.8,1.7-1.5,2.7-2.2c1.3-0.9,2.8-1.7,4.8-2.3c0.3-0.1,0.7-0.2,1.1-0.3c0.4-0.1,0.8-0.1,1.2,0c0.4,0.1,0.8,0.3,1.3,0.7
		c0.4,0.3,0.5,0.7,0.3,1.2c-0.1,0.3-0.3,0.5-0.6,0.5c-0.3,0-0.6,0-0.9-0.1c-0.1,0-0.2-0.1-0.4-0.2h-0.1c-0.1,0.1-0.1,0.1-0.2,0
		c-0.1,0-0.1,0-0.2,0c-0.1,0-0.2,0-0.3,0.1c-0.2,0.1-0.2,0.1,0,0c-1.3,0.6-2.7,1.4-4,2.3c-0.5,0.5-1.1,1-1.8,1.6
		c-0.6,0.6-1.2,1.2-1.8,1.8c-0.5,0.7-1.1,1.3-1.6,2c-0.5,0.7-0.9,1.5-1.2,2.3c-0.1,0.4-0.2,0.7-0.3,1.1c-0.1,0.4,0,0.8,0.1,1.1
		c0.1,0,0.2,0,0.3-0.1c0.5-0.3,0.9-0.6,1.3-0.8c0.4-0.2,0.8-0.5,1.1-0.9c0.9-0.7,1.8-1.6,2.7-2.6l5.2-5.6l2.8-2.5l0.1-0.1
		c0.3-0.4,0.6-0.8,1-1.2c0.4-0.4,0.7-0.7,1-1.2c0.2-0.2,0.4-0.3,0.7-0.3c0.3,0,0.6,0,0.9,0.1c0.3,0.1,0.6,0.2,0.8,0.4
		c0.2,0.2,0.3,0.4,0.3,0.7v0.1c0,0.2-0.1,0.4-0.4,0.7c-0.1,0.1-0.1,0.2-0.2,0.2c-0.1,0-0.1,0.1-0.2,0.2c-0.2,0.2-0.3,0.4-0.5,0.6
		c-0.1,0.2-0.3,0.3-0.5,0.6c-0.2,0.2-0.4,0.5-0.7,0.9c-0.3,0.4-0.6,0.9-1,1.5c-0.1,0.2-0.3,0.5-0.4,0.7c-0.2,0.2-0.3,0.4-0.4,0.7
		c-0.3,0.5-0.6,1.1-0.8,1.7c-0.2,0.6-0.4,1.1-0.5,1.6l-0.3,0.9c-0.3,0.8-0.2,1.5,0.4,2.1c0.6,0.5,1.4,0.7,2.5,0.4
		c0.9-0.3,1.8-0.7,2.6-1.1c0.8-0.4,1.7-0.9,2.7-1.3c2.2-1.2,4.3-2.6,6.1-4.1c1.9-1.6,3.7-3.2,5.7-4.9c0.3-0.2,0.6-0.3,0.9-0.2
		C277.4,44.9,277.7,45,278,45.1z"/>
	<path class="st3" d="M289.7,44.4c0.1,0.1,0.2,0.3,0.4,0.5c0.1,0.2,0.1,0.4-0.1,0.6c-0.2,0.3-0.5,0.6-0.7,0.8
		c-0.2,0.2-0.5,0.5-0.8,0.8l-0.5,0.9l-2.2,3.5l-4.2,7.1c-0.7,1.2-1.4,2.4-2.1,3.6c-0.7,1.2-1.3,2.5-2,3.7c-0.8,1.6-1.5,3.3-2.2,5
		c0.2-0.3,0.4-0.6,0.6-0.8c0.2-0.2,0.4-0.5,0.6-0.8c0.7-0.9,1.3-1.7,2.1-2.2c0.4-0.4,0.7-0.7,1.2-1c0.4-0.3,0.9-0.6,1.3-0.8
		c0.3-0.1,0.7,0,1.3,0.3c0.6,0.2,0.7,0.6,0.3,1c-0.2,0.3-0.5,0.6-0.8,0.8c-0.3,0.2-0.6,0.5-0.9,0.8c-0.6,0.5-1.2,1.1-1.7,1.7
		c-1.4,1.7-2.6,3.5-3.7,5.4c-1.1,1.9-2.1,3.8-3.1,5.7c-0.4,0.9-0.8,1.8-1.2,2.7c-0.4,0.9-0.8,1.8-1.1,2.7c-0.1,0.3-0.2,0.6-0.4,0.9
		c-0.1,0.3-0.2,0.6-0.4,0.9c-0.1,0.1-0.1,0.3-0.1,0.4c0,0.2-0.1,0.3-0.1,0.5l-0.1,0.1c-0.1,0.3-0.3,0.5-0.7,0.5c-0.4,0-0.7,0-0.9,0
		c-0.4-0.1-0.7-0.4-0.9-0.7c-0.1-0.1-0.1-0.3-0.1-0.5c0.3-2.9,1-5.7,2-8.4c1-2.7,2.2-5.4,3.4-8.1c2.1-5,4.6-10,7.5-15l0.2-0.2
		c-0.1,0-0.1,0-0.1,0c0,0,0,0-0.1,0c-0.5,0.5-1.1,1.1-1.7,1.6c-0.6,0.5-1.2,1-1.9,1.5c-0.7,0.4-1.3,0.7-1.9,0.9
		c-0.6,0.2-1.3,0.2-2.1,0c-0.7-0.2-1.2-0.5-1.8-0.9c-0.5-0.5-0.8-1-0.9-1.8c-0.1-0.6,0-1.2,0.2-1.8c0.2-0.6,0.4-1.2,0.6-1.8
		c0.3-0.7,0.6-1.4,1-2.1c0.4-0.7,0.8-1.4,1.3-2c0.7-1,1.4-2,2.2-3c0.8-1,1.6-1.9,2.6-2.7c0.6-0.5,1.2-0.9,1.9-1.4
		c0.7-0.4,1.4-0.6,2.2-0.6c0.4,0.1,0.8,0.2,1.3,0.4c0.4,0.2,0.7,0.6,0.8,1c0.2,0.4,0.2,0.8,0.1,1.3c0,0.4-0.1,0.8-0.4,1.3
		c-0.2,0.4-0.6,0.5-1.1,0.4c-0.6-0.1-0.9-0.3-0.9-0.8V45v-0.2h-0.1l-1.3,0.9c0,0.1,0,0.1-0.1,0.1c-0.1,0-0.1,0-0.1,0.1
		c-0.2,0.1-0.3,0.2-0.4,0.4l-0.5,0.5c-0.1,0.1-0.2,0.2-0.4,0.4c-0.1,0.1-0.2,0.2-0.4,0.4l-1.6,2.1c-0.5,0.6-0.9,1.2-1.3,1.8
		c-0.4,0.6-0.8,1.3-1.2,1.9l-0.5,0.9l-0.4,0.9c-0.1,0.3-0.2,0.6-0.3,0.9c-0.1,0.3-0.2,0.6-0.3,0.9c-0.1,0.1-0.1,0.3-0.1,0.5
		c-0.1,0.1-0.1,0.1-0.1,0.2v0.7c0.1,0.1,0.1,0.1,0.1,0.2c0,0.1,0,0.1,0,0c0,0.1,0.1,0.2,0.4,0.4h0.1c0.5,0,1-0.2,1.4-0.6
		c0.5-0.4,0.9-0.7,1.2-1c-0.1,0.1,0,0.1,0,0c0.1-0.1,0.1-0.1,0.1-0.2c0.1,0,0.2-0.1,0.3-0.2l0.4-0.4c0.4-0.2,0.7-0.5,0.9-0.9
		c0.7-0.6,1.3-1.2,1.9-1.9c0.6-0.7,1.2-1.3,1.8-2l2.9-3.2c0.5-0.5,0.9-1,1.4-1.5c0.4-0.4,0.9-0.9,1.4-1.4c0.3-0.5,0.6-0.9,0.9-1.2
		c0.3-0.3,0.7-0.5,1.2-0.6C288.7,43.9,289.2,44,289.7,44.4z"/>
	<path class="st3" d="M325.6,44.4c0.2,0.1,0.4,0.3,0.7,0.6c0.3,0.3,0.3,0.5,0,0.8l-0.7,0.7c-3.2,3.1-6.6,5.8-10.1,8.1
		c-0.8,0.6-1.7,1.2-2.6,1.7c-0.9,0.5-1.8,1-2.7,1.4c-0.9,0.4-1.9,0.8-2.9,1.1c-1,0.3-2,0.4-3.1,0.3c-0.9-0.1-1.7-0.4-2.4-0.9
		c-0.7-0.5-1.1-1.3-1.3-2.2c-0.1-0.6-0.1-1.2,0-1.8c0.1-0.6,0.3-1.2,0.4-1.8c-0.3,0.3-0.6,0.6-0.9,0.8c-0.3,0.2-0.6,0.5-0.9,0.8
		c-0.6,0.5-1.2,1.1-1.8,1.6c-0.6,0.5-1.2,1-1.8,1.5c-0.5,0.4-1,0.7-1.5,1.1c-0.5,0.4-1.1,0.7-1.6,1c-0.5,0.3-1,0.5-1.5,0.7
		c-0.5,0.2-1.1,0.2-1.7,0.1c-0.7-0.1-1.3-0.4-1.8-0.7c-0.5-0.4-0.9-0.9-1-1.5c-0.1-0.6-0.1-1.2,0.1-1.8c0.2-0.6,0.4-1.2,0.6-1.7
		c0.7-1.6,1.6-3,2.5-4.4c0.5-0.7,0.9-1.3,1.4-2c0.4-0.7,0.9-1.4,1.4-2c0.2-0.3,0.4-0.6,0.6-0.8c0.2-0.2,0.4-0.5,0.5-0.8l0.5-0.6
		c0-0.1,0.1-0.1,0.2-0.3c0.2-0.3,0.5-0.5,0.8-0.5c0.4,0,0.6,0,0.8,0c0.3,0.1,0.6,0.1,0.8,0.2c0.2,0.1,0.4,0.3,0.5,0.5
		c0.2,0.3,0.1,0.6-0.3,0.8c0,0.1,0,0.1-0.1,0.1l-0.2,0.2l-0.3,0.4l-0.8,1.1c-0.3,0.5-0.6,0.9-1,1.4c-0.4,0.4-0.7,0.9-1,1.4l-2.2,3.1
		c-0.1,0.1-0.2,0.3-0.4,0.6c-0.2,0.4-0.3,0.7-0.4,0.9l-0.8,1.4c-0.2,0.5-0.5,1.1-0.6,1.8c0,0.1,0,0.2,0,0.3c0,0.1,0,0.2,0,0.3
		c0,0.2,0,0.3,0.1,0.4c0,0.1,0.2,0.2,0.4,0.1c0.1-0.1,0.1-0.1,0.2-0.1c0.1,0,0.1,0,0,0c0.1,0,0.1,0,0.2-0.1l1.5-0.9l1.6-1.1l0.8-0.7
		l0.1-0.1l0.2-0.2l0.4-0.4c1.2-1,2.4-2.1,3.5-3.2c1.1-1.1,2.3-2.2,3.4-3.3c0.5-0.5,0.9-0.9,1.4-1.4c0.4-0.5,0.9-0.9,1.4-1.3
		c0.7-0.7,1.4-1.3,2.1-1.7c0.2-0.1,0.5-0.2,0.9-0.1c0.3,0,0.6,0.1,0.9,0.2c0.3,0.1,0.5,0.3,0.6,0.5c0.1,0.2,0.1,0.5,0,0.8
		c0,0.1,0,0,0.1,0c0.1-0.1,0,0-0.1,0.1c0,0.1-0.1,0.2-0.2,0.4l-0.3,0.3c-0.1,0.1-0.1,0.1-0.1,0.1c0,0,0-0.1,0.1-0.2l-0.5,0.5
		c-0.2,0.2-0.5,0.5-0.6,0.7c-0.2,0.2-0.4,0.5-0.5,0.8c-0.9,1.1-1.7,2.4-2.3,3.9c-0.1,0.4-0.3,0.7-0.4,1.1c-0.2,0.4-0.3,0.8-0.4,1.1
		l-0.3,1.3v0.1v0.4c0,1.3,0.6,1.7,1.8,1.3l0.6-0.2c0.5-0.1,1-0.3,1.4-0.5c0.4-0.2,0.8-0.4,1.3-0.6c1.9-1,3.6-2,5.1-3.1
		c1.8-1.3,3.5-2.5,5.2-3.9c1.6-1.3,3.3-2.8,4.8-4.3c0.3-0.3,0.6-0.4,1-0.4C325,44.1,325.3,44.2,325.6,44.4z"/>
	<path class="st3" d="M327.6,44.7l-0.4,0.3l-1,0.9c-0.8,0.8-1.5,1.6-2.2,2.4c-0.7,0.8-1.3,1.7-1.9,2.6c-0.7,0.9-1.2,1.8-1.6,2.8
		c-0.3,0.5-0.6,1-0.8,1.5c-0.2,0.5-0.4,1.1-0.5,1.6c-0.1,0.5-0.2,0.8-0.2,1c0.1,0.2,0.3,0.3,0.6,0.2l1.1-0.3
		c0.7-0.2,1.4-0.4,2.2-0.7c0.7-0.3,1.4-0.6,2.2-0.9l1.8-0.9c1-0.4,2.1-1,3.3-1.8c0.1-0.1,0.3-0.2,0.4-0.3c0.2-0.1,0.3-0.1,0.4-0.3
		l5.2-3.2c0.5-0.4,1-0.7,1.5-1c0.5-0.3,1-0.6,1.5-0.9c0.8-0.6,1.5-1.1,2.1-1.4c0.6-0.3,1.1-0.6,1.7-0.9c0.2-0.1,0.4,0,0.7,0
		c0.3,0.1,0.5,0.2,0.8,0.3c0.2,0.1,0.4,0.3,0.5,0.5c0.1,0.2,0,0.4-0.1,0.7c-0.3,0.3-0.7,0.6-1.1,0.9c-0.4,0.3-0.9,0.6-1.3,0.9
		c-1.1,0.7-1.8,1.2-2.2,1.4c-0.4,0.2-0.7,0.4-0.8,0.5c-1.5,1-3,2-4.6,3c-1.6,1-3.3,1.9-5.3,3c-0.5,0.3-1.2,0.6-1.9,0.9
		c-0.7,0.3-1.4,0.6-2,0.9c-0.5,0.2-1.2,0.5-2.1,0.9c-0.9,0.3-1.8,0.6-2.7,0.8c-0.9,0.2-1.8,0.2-2.6,0c-0.8-0.2-1.4-0.7-1.8-1.4
		c-0.3-0.7-0.3-1.3-0.1-2.1c0.1-0.5,0.3-1,0.5-1.5c0.2-0.5,0.5-1,0.8-1.5c0.5-1,1.1-2,1.7-3c0.6-1,1.2-1.9,1.9-2.7
		c0.3-0.4,0.6-0.8,1-1.3c0.4-0.4,0.7-0.8,1.2-1.2l1.3-1.3l1.6-1.2c0.5-0.2,1-0.2,1.4,0.1h-0.1c0.1,0.1,0.3,0.3,0.4,0.5
		c0.1,0.2,0.2,0.5,0.1,0.9L327.6,44.7z M328.7,40.1c-0.2-0.1-0.5-0.2-0.7-0.4c-0.2-0.2-0.3-0.5-0.3-0.8c0.1-0.2,0.3-0.5,0.7-0.8
		c0.1,0,0.3-0.1,0.5-0.3l0.4-0.3L330,37l0.7-0.6c0.3-0.2,0.7-0.3,1.1-0.2c0.4,0.1,0.7,0.3,0.9,0.5c0.1,0.1,0.3,0.3,0.4,0.5
		c0.2,0.2,0.1,0.5-0.1,0.7l-0.9,0.7l-0.8,0.6c-0.4,0.3-0.8,0.5-1.3,0.7C329.7,40.2,329.2,40.2,328.7,40.1z"/>
	<path class="st3" d="M371.9,44.3c0.2,0.1,0.5,0.2,0.7,0.5c0.2,0.3,0.2,0.5,0,0.8c-1,0.9-2.1,1.7-3.1,2.5c-1,0.8-2.1,1.6-3.3,2.4
		c-2.6,1.8-5.4,3.6-8.5,5.5c-0.7,0.4-1.3,0.7-1.8,1c-0.6,0.3-1.2,0.6-1.8,0.9c-1.1,0.6-2.2,1-3.2,1.2c-1.4,0.2-2.5-0.2-3.2-1.4
		c-0.4-0.7-0.6-1.5-0.4-2.2c0.1-0.8,0.4-1.5,0.7-2.2c0.3-0.8,0.7-1.6,1.2-2.4c0.5-0.7,1-1.5,1.4-2.4c0.2-0.4,0.4-0.7,0.6-1.1
		c0.2-0.4,0.4-0.8,0.5-1.3c-1.2,0.7-2.3,1.5-3.3,2.4c-1,1-2,1.9-2.9,2.9c-1.2,1.3-2.3,2.7-3.4,4.1c-1.1,1.4-2.2,2.8-3.4,4.2
		c-0.1,0-0.1,0.1-0.3,0.2c-0.2,0.3-0.4,0.4-0.8,0.4c-0.3-0.1-0.6-0.2-0.9-0.3c-0.2-0.1-0.4-0.2-0.6-0.4c-0.2-0.2-0.3-0.4-0.1-0.6
		c0.8-1.9,1.8-3.7,2.7-5.4c1-1.7,2.1-3.3,3.2-4.9c0.4-0.6,0.8-1.2,1-1.8c0.3-0.6,0.6-1.3,1.1-1.9c0.3-0.5,0.7-1.1,1.1-1.8
		c0.4-0.6,1-0.9,1.7-0.9c0.3,0,0.6,0.1,0.9,0.2c0.3,0.1,0.6,0.3,0.7,0.6c0.1,0.3,0.1,0.5,0,0.7c-0.1,0.2-0.4,0.3-0.7,0.3
		c0.1,0,0,0.1-0.3,0.2l-0.5,0.7l-0.8,1.7l-0.7,1.6c1-1,2.1-2,3.3-2.8c1.2-0.9,2.5-1.5,3.9-1.9c0.3-0.1,0.7-0.1,1.2,0.1
		c0.5,0.2,0.8,0.5,0.9,0.9c0.1,0.8-0.1,1.6-0.4,2.4c-0.3,0.8-0.6,1.5-1,2.2c-0.4,0.8-0.9,1.5-1.3,2.2c-0.4,0.7-0.8,1.5-1.1,2.3
		c-0.2,0.4-0.3,0.8-0.5,1.1c-0.1,0.3-0.2,0.7-0.3,1.2c-0.1,0.5-0.1,0.9,0.1,1.3c0.2-0.1,0.4-0.1,0.6-0.2c0.2-0.1,0.4-0.1,0.6-0.3
		l1.7-0.9l4-2.3c1.4-0.9,2.7-1.8,4.1-2.7c1.3-0.9,2.7-1.8,4.1-2.8l3.3-2.4c0.3-0.3,0.7-0.6,1.2-0.9l0.4-0.3c0.1-0.1,0.2-0.1,0.3-0.2
		c0.1-0.1,0,0-0.1,0.1C370.7,44,371.2,44,371.9,44.3z"/>
</g>
<g class="st1">
	<path class="st2" d="M293.2,107.8V97.7h3.7c1.7,0,3.2,1.3,3.3,3.1c0.1,1.7-1.1,3.3-2.8,3.5l2.6,3.5h-0.9l-2.6-3.4h-2.6v3.4H293.2z
		 M293.9,103.7h3c1.4,0,2.6-1.2,2.6-2.6c0-1.4-1.2-2.6-2.6-2.6h-3V103.7z"/>
	<path class="st2" d="M307.8,107.8h-6.1V97.7h6.1v0.7h-5.4v5.2h4.7v0.7h-4.7v2.7h5.4V107.8z"/>
	<path class="st2" d="M311.6,107.1c1,0,1.8-0.7,2.1-1.6c0.3-0.9-0.2-2-1-2.4l-2.3-1.3c-0.8-0.5-1.2-1.5-1-2.4
		c0.3-0.9,1.1-1.6,2.1-1.6h0.2c0.8,0,1.4,0.4,1.8,1.1l-0.6,0.4c-0.2-0.4-0.7-0.7-1.2-0.7h-0.2c-0.7,0-1.2,0.4-1.4,1
		c-0.2,0.6,0.1,1.3,0.7,1.6l2.3,1.3c1.1,0.7,1.7,2,1.3,3.2s-1.5,2.1-2.8,2.1h0c-0.9,0-1.7-0.4-2.3-1.2l0.6-0.4
		C310.3,106.8,310.9,107.1,311.6,107.1L311.6,107.1z"/>
	<path class="st2" d="M318.8,98.4H316v-0.7h6.3v0.7h-2.8v9.4h-0.7V98.4z"/>
	<path class="st2" d="M321.6,107.8l4.1-10.2l4.1,10.2H329l-0.9-2.2h-4.9l-0.9,2.2H321.6z M323.5,104.9h4.4l-2.2-5.4L323.5,104.9z"/>
	<path class="st2" d="M336.2,97.7h0.7v6.9c0,1.2-0.6,2.2-1.6,2.8c-1,0.6-2.2,0.6-3.2,0c-1-0.6-1.6-1.6-1.6-2.8v-6.9h0.7v6.9
		c0,0.9,0.5,1.7,1.2,2.2c0.8,0.5,1.7,0.5,2.5,0c0.8-0.5,1.2-1.3,1.2-2.2L336.2,97.7z"/>
	<path class="st2" d="M338.4,107.8V97.7h3.7c1.7,0,3.2,1.3,3.3,3.1c0.1,1.7-1.1,3.3-2.8,3.5l2.6,3.5h-0.9l-2.6-3.4h-2.6v3.4H338.4z
		 M339.1,103.7h3c1.4,0,2.6-1.2,2.6-2.6c0-1.4-1.2-2.6-2.6-2.6h-3V103.7z"/>
	<path class="st2" d="M346.9,107.8l4.1-10.2l4.1,10.2h-0.8l-0.9-2.2h-4.9l-0.9,2.2H346.9z M348.8,104.9h4.4l-2.2-5.4L348.8,104.9z"
		/>
	<path class="st2" d="M357.2,107.8h-0.7V97.6l6.3,8.2v-8h0.7v10.1l-6.3-8.2V107.8z"/>
	<path class="st2" d="M367.8,98.4H365v-0.7h6.3v0.7h-2.8v9.4h-0.7V98.4z"/>
</g>
</svg>
